<svg xmlns="http://www.w3.org/2000/svg" viewBox="0 0 300 300" width="300" height="300">
  <!-- Background -->
  <rect width="300" height="300" fill="#8e44ad" />
  
  <!-- Gradient overlay -->
  <rect width="300" height="300" fill="url(#gradient)" />
  
  <!-- Paint splatter background elements -->
  <circle cx="50" cy="50" r="25" fill="#e74c3c" opacity="0.7" />
  <circle cx="250" cy="70" r="30" fill="#3498db" opacity="0.7" />
  <circle cx="70" cy="230" r="28" fill="#f39c12" opacity="0.7" />
  <circle cx="220" cy="240" r="35" fill="#9b59b6" opacity="0.7" />
  
  <!-- Face shape -->
  <circle cx="150" cy="130" r="80" fill="#ecf0f1" />
  
  <!-- Colorful hair -->
  <path d="M70,130 C70,80 120,50 150,50 C180,50 230,80 230,130 C230,130 220,100 150,100 C80,100 70,130 70,130 Z" fill="url(#hairGradient)" />
  
  <!-- Long side hair strands -->
  <path d="M80,130 C80,130 70,200 90,240" fill="none" stroke="#9b59b6" stroke-width="10" stroke-linecap="round" />
  <path d="M220,130 C220,130 230,200 210,240" fill="none" stroke="#9b59b6" stroke-width="10" stroke-linecap="round" />
  
  <!-- Eyes -->
  <circle cx="120" cy="120" r="10" fill="#2c3e50" />
  <circle cx="180" cy="120" r="10" fill="#2c3e50" />
  <circle cx="125" cy="115" r="3" fill="white" />
  <circle cx="185" cy="115" r="3" fill="white" />
  
  <!-- Paintbrush behind ear -->
  <rect x="200" y="90" width="5" height="45" rx="2" fill="#8D6E63" transform="rotate(30 200 90)" />
  <path d="M182,75 L197,85 L190,100 L175,90 Z" fill="#27ae60" transform="rotate(30 200 90)" />
  
  <!-- Mouth -->
  <path d="M130,160 C140,170 160,170 170,160" fill="none" stroke="#34495e" stroke-width="3" stroke-linecap="round" />
  
  <!-- Paint palette in hand -->
  <path d="M100,250 C60,240 90,190 110,200 C130,210 140,260 100,250 Z" fill="#8D6E63" />
  <circle cx="100" cy="220" r="8" fill="#e74c3c" />
  <circle cx="115" cy="215" r="8" fill="#f39c12" />
  <circle cx="125" cy="230" r="8" fill="#3498db" />
  <circle cx="105" cy="240" r="8" fill="#9b59b6" />
  
  <!-- Gradient definitions -->
  <defs>
    <linearGradient id="gradient" x1="0%" y1="0%" x2="100%" y2="100%">
      <stop offset="0%" stop-color="#8e44ad" stop-opacity="0.7" />
      <stop offset="100%" stop-color="#e74c3c" stop-opacity="0.7" />
    </linearGradient>
    <linearGradient id="hairGradient" x1="0%" y1="0%" x2="100%" y2="0%">
      <stop offset="0%" stop-color="#9b59b6" />
      <stop offset="50%" stop-color="#8e44ad" />
      <stop offset="100%" stop-color="#9b59b6" />
    </linearGradient>
  </defs>
</svg> 